<svg xmlns="http://www.w3.org/2000/svg" width="24" height="24" viewBox="0 0 24 24"><path d="M12 0c-6.627 0-12 5.373-12 12s5.373 12 12 12 12-5.373 12-12-5.373-12-12-12zm-1.647 15.29c.415.415.415 1.086 0 1.5-.415.415-1.086.415-1.5 0-.415-.415-.415-1.086 0-1.5.414-.415 1.085-.415 1.5 0zm4.94-2.29c-.415-.415-1.086-.415-1.5 0-.415.415-.415 1.086 0 1.5.415.415 1.086.415 1.5 0 .415-.414.415-1.085 0-1.5zm-2.293-5.293c-1.439 1.439-3.771 1.439-5.21 0l-3.293-3.293.707-.707 3.293 3.293c1.028 1.028 2.688 1.028 3.716 0l3.293-3.293.707.707-3.213 3.213zm-5.293 5.293c-.415-.415-1.086-.415-1.5 0-.415.415-.415 1.086 0 1.5.415.415 1.086.415 1.5 0 .415-.414.415-1.085 0-1.5z"/></svg>
