<svg xmlns="http://www.w3.org/2000/svg" width="24" height="24" viewBox="0 0 24 24"><path d="M24 4.557c-.883.392-1.832.656-2.828.775 1.017-.609 1.798-1.574 2.165-2.724-.951.564-2.005.974-3.127 1.195-.897-.957-2.178-1.555-3.594-1.555-3.179 0-5.515 2.966-4.797 6.045-4.091-.205-7.719-2.165-10.148-5.144-1.29 2.213-.669 5.108 1.523 6.574-.806-.026-1.566-.247-2.229-.616v.064c0 2.298 1.634 4.212 3.791 4.649-.69.188-1.42.23-2.16.084.616 1.924 2.396 3.318 4.491 3.355-1.64 1.286-3.7 2.057-5.945 2.057-.386 0-.767-.022-1.142-.066 2.119 1.369 4.649 2.166 7.34 2.166 8.807 0 13.61-7.278 13.61-13.61 0-.207-.005-.412-.013-.617.935-.676 1.748-1.522 2.404-2.494z"/></svg>
